<?xml version="1.0" encoding="UTF-8"?><svg id="Versions" xmlns="http://www.w3.org/2000/svg" viewBox="0 0 270 270"><defs><style>.cls-1{fill:#f1f1f2;}</style></defs><path class="cls-1" d="M135.5,21.05c62.93,0,113.95,51.02,113.95,113.95s-51.02,113.95-113.95,113.95S21.56,197.93,21.56,135,72.57,21.05,135.5,21.05m0-7.1C68.76,13.95,14.46,68.25,14.46,135s54.3,121.05,121.05,121.05,121.05-54.3,121.05-121.05S202.25,13.95,135.5,13.95h0Z"/><g><path class="cls-1" d="M191.2,193.47c-5.33,0-9.65,4.28-9.65,9.65s4.33,9.65,9.65,9.65,9.65-4.33,9.65-9.65-4.28-9.65-9.65-9.65Zm0,17.99c-4.6,0-8.33-3.78-8.33-8.33s3.73-8.29,8.33-8.29,8.29,3.64,8.29,8.29-3.69,8.33-8.29,8.33Z"/><path class="cls-1" d="M195.53,200.98c0-2.05-1.59-3.37-3.51-3.37h-4.51v11.07h1.46v-4.37h2l2.87,4.37h1.82l-2.96-4.42c.64,0,2.82-.82,2.82-3.28Zm-6.56,1.96v-4.01h3.05c1.05,0,2,.82,2,2.05,0,1.14-.96,1.96-2,1.96h-3.05Z"/><path class="cls-1" d="M140.4,165.35v47.79h15.9c3.1,0,5.6-2.51,5.6-5.6v-54.25c-11.88,0-21.5,.19-21.5,12.06Z"/><path class="cls-1" d="M170.75,57.19h-27.75c-1.43,0-2.59,1.16-2.59,2.59V126.37h-9.55s0-66.58,0-66.58c0-1.43-1.16-2.59-2.59-2.59h-28.62c-17.42,0-30.1,11.83-30.1,30.11v21.32c0,13.08,3.96,18.48,11.47,23.04-7.5,5.15-12.12,13.83-12.12,24.87v26.51c0,18.28,12.69,30.11,30.11,30.11h31.85v-59.85c-11.88,0-21.5,.19-21.5,12.06v26.48h-10.35c-4.73,0-8.6-3.87-8.6-8.6v-20.47h0v-.2c0-9.46,4.51-14.62,12.91-14.62v-.02l67.44-.09c17.42,0,30.11-11.83,30.11-30.11v-30.43c0-18.28-12.69-30.11-30.11-30.11Zm-79.7,30.11c0-4.73,3.87-8.6,8.6-8.6h9.7v47.71h-2.31s-4.13,0-4.13,0c-8.76-.13-11.62-4.76-11.85-13.91l-.02-25.01v-.19Zm88.3,23.99c0,10.04-2.76,14.98-12.06,15.05h-.84s-4.52,0-4.52,0h-.01v-47.64h5.38c9.3,.07,12.06,5.01,12.06,15.05v17.54Z"/></g></svg>