<svg width="342" height="74" viewBox="0 0 342 74" fill="none" xmlns="http://www.w3.org/2000/svg">
<path d="M0.199951 40.0499H4.52995L9.29995 14.3899H9.44995L21.5299 41.5399L33.61 14.3899H33.76L38.5299 39.8999H42.86L35.0999 0.0699463L21.5299 31.8399L7.80995 0.0699463L0.199951 40.0499ZM98.8 29.3099L103.28 40.0499H107.9L91.0399 0.369946L73.7399 40.0499H78.36L82.84 29.3099H98.8ZM97.16 25.4299H84.4799L90.89 10.3599L97.16 25.4299ZM145.79 6.18995H146.98C152.05 6.18995 156.53 6.78995 156.53 13.0499C156.53 18.8699 151.76 19.7599 146.98 19.7599H145.64L145.79 6.18995ZM145.79 23.4999H146.83L158.17 40.0599H163.24L151.31 23.0499C157.13 22.5999 160.71 18.4299 160.71 12.6099C160.71 4.10995 154.15 2.16994 146.99 2.16994H141.62V39.91H145.8V23.4999H145.79ZM202.62 2.15995H198.44V39.8999H202.62V2.15995ZM240.21 40.0499H244.39V10.9599L273.63 41.8399V2.15995H269.45V31.3999L240.21 0.669945V40.0499ZM332.7 29.3099L337.18 40.0499H341.8L324.94 0.369946L307.64 39.8999H312.26L316.74 29.16H332.7V29.3099ZM331.06 25.4299H318.38L324.79 10.3599L331.06 25.4299Z" fill="white"/>
<path d="M110.17 73.14L113.28 53.43L120.45 69.19L127.76 53.4L130.67 73.14H128.54L126.78 60.15L120.42 73.93L114.15 60.15L112.3 73.14H110.17Z" fill="white"/>
<path d="M148.87 56.4201H141.25V61.9601H148.64V63.9201H141.25V71.1701H148.87V73.1301H139.18V54.4501H148.87V56.4101V56.4201Z" fill="white"/>
<path d="M158.27 54.46H162.08C163.96 54.46 166.62 54.66 168.97 56.64C170.68 58.07 172.16 60.45 172.16 63.81C172.16 67.73 170.23 69.83 168.88 70.98C167.17 72.44 165.38 73.14 162.05 73.14H158.27V54.46ZM160.35 71.18H162.17C163.65 71.18 165.7 71.01 167.52 69.5C168.92 68.32 170.04 66.48 170.04 63.82C170.04 59.34 166.9 56.43 162.17 56.43H160.35V71.19V71.18Z" fill="white"/>
<path d="M189.91 58.16C189.66 57.66 189.24 57.1 188.82 56.76C188.46 56.48 187.78 56.12 186.72 56.12C184.87 56.12 183.58 57.27 183.58 59C183.58 59.73 183.78 60.15 184.28 60.62C184.84 61.18 185.54 61.49 186.24 61.8L188.03 62.58C189.12 63.06 190.13 63.56 190.91 64.34C191.86 65.29 192.25 66.38 192.25 67.73C192.25 71.17 189.7 73.47 186.34 73.47C185.11 73.47 183.57 73.22 182.28 71.96C181.36 71.06 180.8 69.78 180.54 68.66L182.56 68.1C182.7 69.08 183.15 69.92 183.68 70.48C184.49 71.29 185.42 71.52 186.37 71.52C188.92 71.52 190.12 69.7 190.12 67.82C190.12 66.98 189.87 66.25 189.2 65.64C188.67 65.14 187.94 64.8 186.96 64.35L185.28 63.57C184.55 63.23 183.63 62.84 182.79 62.03C181.98 61.25 181.5 60.38 181.5 58.98C181.5 56.1 183.71 54.16 186.74 54.16C187.89 54.16 188.81 54.38 189.74 55C190.5 55.5 191.14 56.26 191.56 57.07L189.91 58.16Z" fill="white"/>
<path d="M205.06 54.46C206.94 54.46 208.5 54.68 209.76 55.78C211.13 56.96 211.47 58.61 211.47 59.78C211.47 62.41 209.82 65.02 205.56 65.02H203.74V73.14H201.67V54.46H205.06ZM203.75 63.06H205.46C207.92 63.06 209.41 61.83 209.41 59.67C209.41 56.7 206.64 56.42 205.29 56.42H203.75V63.06Z" fill="white"/>
<path d="M228.89 67.8801H220.94L218.7 73.1401H216.4L225 53.5701L233.37 73.1401H231.07L228.89 67.8801ZM228.08 65.9201L224.94 58.4401L221.75 65.9201H228.08Z" fill="white"/>
</svg>
